<svg width="35" height="35" viewBox="0 0 35 35" fill="none" xmlns="http://www.w3.org/2000/svg">
<g clip-path="url(#clip0_64_254)">
<path d="M14.5618 3.15262C14.4043 3.15262 14.2483 3.08239 14.1442 2.94834C13.9653 2.7179 14.0072 2.38625 14.2374 2.20734L15.168 1.48476C15.3984 1.30585 15.7303 1.34777 15.909 1.57795C16.0879 1.8084 16.0462 2.14031 15.8158 2.31922L14.8855 3.04153C14.7891 3.11657 14.675 3.15262 14.5618 3.15262Z" fill="#A5E094"/>
<path d="M6.01437 4.16945C5.9396 4.16945 5.8635 4.15369 5.7914 4.11978L4.81434 3.66396C4.54998 3.5406 4.4357 3.2263 4.5588 2.96195C4.68216 2.69759 4.99672 2.5833 5.26081 2.70667L6.23787 3.16248C6.50223 3.28585 6.61652 3.60014 6.49315 3.8645C6.4037 4.0565 6.21304 4.16945 6.01437 4.16945Z" fill="#A5E094"/>
<path d="M5.68157 5.43869H4.6981C4.40651 5.43869 4.16992 5.2021 4.16992 4.91051C4.16992 4.61891 4.40651 4.38232 4.6981 4.38232H5.68157C5.97317 4.38232 6.20976 4.61891 6.20976 4.91051C6.20976 5.2021 5.97317 5.43869 5.68157 5.43869Z" fill="#A5E094"/>
<path d="M5.58292 9.75626C5.41202 9.75626 5.24459 9.67348 5.14286 9.52047C4.98104 9.27774 5.04699 8.94983 5.28972 8.78828L6.12499 8.23232C6.36798 8.07077 6.69563 8.13646 6.85745 8.37946C7.019 8.62219 6.95304 8.9501 6.71031 9.11165L5.87505 9.6676C5.78506 9.72742 5.68332 9.75626 5.58292 9.75626Z" fill="#A5E094"/>
<path d="M16.6841 8.67553C16.4363 8.67553 16.2152 8.50063 16.166 8.24829C16.1105 7.96177 16.2974 7.68459 16.5837 7.62905L17.3482 7.48031C17.6347 7.4245 17.9119 7.61142 17.9677 7.89768C18.0232 8.1842 17.8363 8.46138 17.55 8.51719L16.7855 8.66592C16.7513 8.67233 16.7174 8.67553 16.6841 8.67553Z" fill="#A5E094"/>
<path d="M22.6171 5.81862C22.3936 5.81862 22.1861 5.67576 22.1143 5.45172L21.7586 4.34409C21.6694 4.06611 21.8224 3.76891 22.1001 3.67972C22.3778 3.59053 22.6753 3.74354 22.7645 4.02098L23.1199 5.12888C23.2091 5.40659 23.0563 5.70406 22.7786 5.79298C22.725 5.81034 22.6705 5.81862 22.6171 5.81862Z" fill="#A5E094"/>
<path d="M21.2876 7.28817C21.1939 7.28817 21.0988 7.26334 21.0131 7.211L20.0246 6.60778C19.7754 6.45584 19.6967 6.13087 19.8486 5.88173C20.0005 5.63286 20.3255 5.55409 20.5746 5.70603L21.5632 6.30898C21.8123 6.46092 21.8911 6.78616 21.7392 7.03503C21.6396 7.19818 21.4657 7.28817 21.2876 7.28817Z" fill="#A5E094"/>
<path d="M27.8862 15.7191C27.7354 15.7191 27.5856 15.6548 27.4812 15.5301L26.9052 14.843C26.7177 14.6192 26.7471 14.2862 26.9706 14.0988C27.1941 13.9113 27.5274 13.9407 27.7148 14.1642L28.2908 14.8515C28.4782 15.075 28.4489 15.4083 28.2254 15.5957C28.1263 15.6785 28.0059 15.7191 27.8862 15.7191Z" fill="#A5E094"/>
<path d="M28.9867 14.1049C28.9536 14.1049 28.9197 14.1017 28.8857 14.095L27.8142 13.8873C27.5276 13.832 27.3404 13.5548 27.396 13.2683C27.4515 12.9821 27.7287 12.7946 28.015 12.8504L29.0868 13.0582C29.3731 13.1134 29.5603 13.3906 29.5047 13.6771C29.4558 13.9295 29.2347 14.1049 28.9867 14.1049Z" fill="#A5E094"/>
<path d="M27.9033 5.05765C27.8015 5.05765 27.699 5.02828 27.6085 4.96713C27.3665 4.80424 27.3027 4.47579 27.4659 4.23413L28.103 3.28912C28.2661 3.04719 28.5943 2.98337 28.8363 3.14652C29.0782 3.30968 29.142 3.63786 28.9788 3.87978L28.3417 4.82453C28.2397 4.97594 28.0728 5.05765 27.9033 5.05765Z" fill="#A5E094"/>
<path d="M28.7758 5.87251C28.646 5.87251 28.5157 5.82471 28.4135 5.72831C28.2014 5.52804 28.1916 5.19399 28.3918 4.9817L29.1638 4.16379C29.3641 3.95151 29.6981 3.94189 29.9104 4.14216C30.1224 4.34244 30.1323 4.67649 29.932 4.88878L29.1601 5.70669C29.0565 5.81697 28.9163 5.87251 28.7758 5.87251Z" fill="#A5E094"/>
<path d="M29.4212 6.92523C29.1977 6.92523 28.9902 6.7821 28.9181 6.55806C28.8292 6.28035 28.9822 5.98288 29.2599 5.89396L30.2642 5.57192C30.5419 5.483 30.8394 5.63601 30.9283 5.91372C31.0172 6.19143 30.8645 6.4889 30.5865 6.57782L29.5825 6.89986C29.5288 6.91695 29.4746 6.92523 29.4212 6.92523Z" fill="#A5E094"/>
<path d="M9.79949 21.1491C9.57999 21.1491 9.37518 21.0113 9.29988 20.7921C9.20535 20.5159 9.35248 20.2158 9.62859 20.1213L10.8703 19.6956C11.1464 19.6011 11.4468 19.7482 11.5411 20.0243C11.6358 20.3002 11.4887 20.6006 11.2126 20.6951L9.97065 21.1205C9.91404 21.14 9.85637 21.1491 9.79949 21.1491Z" fill="#A5E094"/>
<path d="M10.8604 18.0339C10.8118 18.0339 10.7622 18.0269 10.713 18.0128L9.69406 17.7166C9.41395 17.6354 9.25267 17.3422 9.33411 17.0621C9.41555 16.782 9.70875 16.621 9.9886 16.7022L11.0076 16.9983C11.2877 17.0798 11.449 17.3727 11.3675 17.6528C11.3005 17.8838 11.0896 18.0339 10.8604 18.0339Z" fill="#A5E094"/>
<path d="M26.0003 20.2763H24.7848C24.4932 20.2763 24.2568 20.04 24.2568 19.7482C24.2568 19.4566 24.4932 19.22 24.7848 19.22H26.0003C26.2921 19.22 26.5285 19.4566 26.5285 19.7482C26.5285 20.0397 26.2921 20.2763 26.0003 20.2763Z" fill="#A5E094"/>
<path d="M29.4346 11.1912C27.6592 15.3467 23.7499 17.8045 21.8881 17.1107C20.1199 16.4514 19.154 12.9557 20.7813 7.94628C21.8347 4.70375 24.7745 3.16887 27.1272 4.04579C29.4798 4.92298 30.7863 8.02719 29.4346 11.1912Z" fill="#80C56E"/>
<path d="M27.1271 4.04572C26.7583 3.9082 26.3752 3.83022 25.9872 3.80859C26.9883 5.22305 27.2801 7.31922 26.3725 9.4437C25.6793 11.0667 24.66 12.4299 23.5649 13.4483C24.2106 14.3418 24.6525 15.392 24.8226 16.5312C26.5252 15.5768 28.3661 13.6916 29.4345 11.1911C30.7862 8.02712 29.4796 4.92291 27.1271 4.04572Z" fill="#70B25D"/>
<path d="M15.9332 5.07696C17.8317 10.5145 16.4456 16.1095 15.6263 16.6465C15.2135 16.917 7.82883 13.4756 5.97966 7.8797C4.78283 4.25745 6.41812 0.926533 9.12098 0.159893C11.8236 -0.607014 14.664 1.44217 15.9332 5.07696Z" fill="#80C56E"/>
<path d="M13.5634 11.9484C14.5116 11.2293 15.647 10.7438 16.8837 10.578C16.8551 8.87091 16.5921 6.96459 15.933 5.07696C14.6638 1.44217 11.8235 -0.607014 9.12087 0.159893C8.49255 0.338001 7.92217 0.654698 7.43164 1.08141C9.57989 1.33402 11.5965 3.22565 12.6104 6.12932C13.3108 8.13524 13.564 10.1617 13.5634 11.9484Z" fill="#70B25D"/>
<path d="M22.4343 28.1369C23.8621 25.1452 24.9011 21.2025 24.9011 17.584C24.9011 13.6797 21.736 10.5146 17.8317 10.5146C13.9278 10.5146 10.7627 13.6797 10.7627 17.584C10.7627 21.4861 11.7683 25.2861 13.1393 28.1369H22.4343Z" fill="#80C56E"/>
<path d="M17.8316 10.5146C17.2316 10.5146 16.6492 10.5897 16.093 10.7304C19.1566 11.5053 21.4234 14.2798 21.4234 17.584C21.4234 21.2025 20.3847 25.1452 18.9569 28.1369H22.4342C23.862 25.1452 24.901 21.2025 24.901 17.584C24.901 13.6797 21.7359 10.5146 17.8316 10.5146Z" fill="#70B25D"/>
<path d="M19.8667 25.9514C19.942 25.7861 20.017 25.6136 20.0913 25.432C20.9802 23.2592 21.4312 20.7585 21.4312 17.9993C21.4312 17.8802 21.428 17.7568 21.4232 17.6318C21.416 20.4095 20.7997 23.374 19.8667 25.9514Z" fill="#80C56E"/>
<path d="M22.2941 35H13.3697C12.912 35 12.5141 34.6858 12.4084 34.2406L10.1333 24.6772H25.5305L23.2554 34.2406C23.1494 34.6858 22.7517 35 22.2941 35Z" fill="#FA9A39"/>
<path d="M22.0296 24.6772L19.7545 34.2406C19.6485 34.6858 19.2507 35 18.793 35H22.294C22.7514 35 23.1493 34.6858 23.2553 34.2406L25.5304 24.6772H22.0296Z" fill="#ED8A2F"/>
<path d="M26.3145 25.3001H9.34931C8.99737 25.3001 8.71191 25.0147 8.71191 24.6628V23.8571C8.71191 23.5052 8.99737 23.2197 9.34931 23.2197H26.3145C26.6664 23.2197 26.9519 23.5052 26.9519 23.8571V24.6628C26.9519 25.0147 26.6664 25.3001 26.3145 25.3001Z" fill="#C35F58"/>
<path d="M26.3144 23.2197H23.4607V25.3001H26.3144C26.6664 25.3001 26.9518 25.0147 26.9518 24.6628V23.8571C26.9518 23.5052 26.6664 23.2197 26.3144 23.2197Z" fill="#AF4B48"/>
<path d="M12.7086 12.7131C13.0539 12.3499 13.4373 12.0239 13.8526 11.7406C13.7233 11.8052 13.5935 11.8757 13.4571 11.9665C11.9342 10.5614 10.574 8.666 9.59959 6.58318C8.68795 4.6344 8.23401 2.72488 8.41478 1.60015C8.48394 1.16943 8.63375 0.903206 8.85992 0.808945C8.88956 0.796661 8.92401 0.790787 8.96273 0.790787C9.09571 0.790787 9.27836 0.862351 9.48317 0.997467C11.2367 2.1537 13.9324 7.26036 14.1263 11.563C14.4512 11.3625 14.7938 11.1878 15.1509 11.0412C14.7802 6.6972 12.143 1.48479 10.0653 0.114937C10.0103 0.0786209 9.95661 0.0463104 9.90347 0.0158691C9.64232 0.0385666 9.38089 0.0860977 9.12081 0.160065C8.5013 0.335503 7.9384 0.646324 7.45241 1.06396C7.41983 1.17718 7.39233 1.29948 7.37097 1.43246C7.15521 2.77535 7.63025 4.86832 8.64203 7.03098C9.66635 9.22089 11.0995 11.2191 12.7086 12.7131Z" fill="#A5E094"/>
<path d="M15.9919 23.2199C15.5865 21.7915 15.2896 20.0476 15.2896 17.9995C15.2896 16.4958 15.6212 14.6803 16.1553 13.261C16.6621 11.9139 17.3201 11.0434 17.8317 11.0434C18.2095 11.0434 18.8747 11.6567 19.5065 13.3855C20.0334 14.8266 20.3738 16.6376 20.3738 17.9995C20.3738 20.0879 20.1014 21.8196 19.7231 23.2199H20.816C21.2243 21.6121 21.4313 19.8652 21.4313 17.9995C21.4313 16.5239 21.0654 14.5703 20.4996 13.0223C20.1933 12.1841 19.7519 11.2492 19.166 10.641C18.734 10.5584 18.2881 10.5146 17.8317 10.5146C17.3644 10.5146 16.9081 10.5606 16.4661 10.6468C15.0706 12.0642 14.2324 15.4734 14.2324 17.9995C14.2324 20.0166 14.5091 21.7608 14.8989 23.2199H15.9919Z" fill="#A5E094"/>
<path d="M22.6739 8.23981C22.2264 9.24705 21.8683 10.3897 21.6616 11.6415C22.0013 11.8607 22.3209 12.1085 22.6171 12.3812C22.6224 12.3609 22.6259 12.3451 22.6283 12.3318H22.6285C22.6291 12.328 22.6293 12.324 22.6299 12.3203C22.6301 12.3187 22.6304 12.3171 22.6307 12.3155C22.8058 10.9301 23.1762 9.70927 23.6395 8.67213C23.7543 8.41498 23.6486 8.11351 23.3978 7.98507C23.1281 7.84701 22.797 7.9629 22.6739 8.23981Z" fill="#A5E094"/>
<path d="M28.3828 4.80804C28.0127 4.4788 27.5906 4.21844 27.1273 4.04568C26.8589 3.94581 26.5831 3.87852 26.3032 3.84033C26.2049 3.88813 26.1048 3.9426 26.0028 4.00482C25.3328 4.41391 24.6105 5.10151 23.9432 6.01929C23.7534 6.28044 23.8455 6.65028 24.1331 6.79741L24.1389 6.80035C24.3705 6.91864 24.6535 6.85082 24.8068 6.64066C25.4172 5.80406 26.0471 5.2166 26.554 4.90738C26.9313 4.67693 27.1532 4.65157 27.2237 4.66198C27.2554 4.70337 27.3825 4.90845 27.393 5.54718C27.4261 7.59048 26.21 11.7465 23.9237 13.9265L23.8965 13.95C24.0829 14.2606 24.246 14.5866 24.3835 14.9258C24.5822 14.7546 24.6268 14.7164 24.6428 14.7017C26.3203 13.1081 27.2789 10.7761 27.7008 9.52805C28.3265 7.67807 28.5855 5.87856 28.3828 4.80804Z" fill="#A5E094"/>
</g>
<defs>
<clipPath id="clip0_64_254">
<rect width="35" height="35" fill="white"/>
</clipPath>
</defs>
</svg>
