<svg width="28" height="28" viewBox="0 0 28 28" fill="none" xmlns="http://www.w3.org/2000/svg">
<path d="M3.1327 14.6125L9.6427 17.9375C9.8352 18.0337 10.2552 18.27 10.4914 17.885C10.7102 17.5262 10.3427 17.2375 10.1677 17.1062L2.5902 11.305C2.03895 10.8675 1.91645 10.0187 2.33645 9.44121C2.75645 8.83746 3.63145 8.66246 4.22645 9.07371L11.9264 14.595C12.0664 14.7 12.4514 14.98 12.7314 14.6562C13.0114 14.35 12.7052 14 12.5827 13.8687L5.43395 6.32621C4.9177 5.75746 4.9527 4.81246 5.64395 4.17371C6.1952 3.66621 7.16645 3.64871 7.69145 4.19121L14.7177 11.5062C14.8227 11.6112 15.1464 11.9437 15.4789 11.6987C15.8202 11.4362 15.5752 11.0512 15.5139 10.9025L11.1477 3.65746C10.8502 3.19371 10.8414 2.23996 11.6464 1.75871C12.4777 1.26871 13.2739 1.75871 13.5802 2.27496L18.4364 10.08C19.1277 11.235 20.2127 12.2062 21.1752 12.6612C21.9189 13.0112 22.4964 12.565 22.5927 11.7862C22.7414 10.5787 22.9777 9.08246 23.3977 7.82246C23.8352 6.50121 25.3752 5.84496 26.6877 6.50996L26.2414 8.26871C25.7952 10.0537 25.7427 11.9262 26.0489 13.7462C26.3114 15.2687 26.5739 17.2287 26.5389 18.97C26.4952 21.595 24.7277 22.7412 23.1439 24.1675C16.3102 30.3712 11.3402 21.9362 8.91645 20.7375L1.8727 16.8262C1.2777 16.485 1.14645 15.6887 1.49645 15.1112C1.8377 14.5512 2.5377 14.3062 3.1327 14.6125Z" fill="#FFD869"/>
<path d="M24.6404 6.47487C24.8504 6.51862 25.0517 6.57987 25.2529 6.67612L24.8067 8.43487C24.3604 10.2199 24.3079 12.0924 24.6142 13.9124C24.8767 15.4349 25.1392 17.3949 25.1042 19.1361C25.0604 21.7611 23.2929 22.9074 21.7092 24.3336C20.4142 25.5061 19.1892 26.1536 18.0342 26.4249C19.5917 26.4511 21.2979 25.8474 23.1354 24.1761C24.7192 22.7499 26.4779 21.6036 26.5304 18.9786C26.5654 17.2286 26.3029 15.2686 26.0404 13.7549C25.7254 11.9349 25.7867 10.0624 26.2329 8.27737L26.6792 6.51862C26.0054 6.17737 25.2617 6.19487 24.6404 6.47487Z" fill="#F2C34E"/>
<path d="M24.6226 13.0462C24.8851 14.5687 25.1476 16.5287 25.1126 18.27C25.0689 20.895 23.3014 22.0412 21.7176 23.4675C18.9876 25.9437 16.5551 26.0837 14.4639 25.2875C16.8439 26.7312 19.7664 27.2475 23.1439 24.1762C24.7276 22.75 26.4864 21.6037 26.5389 18.9787C26.5739 17.2287 26.3114 15.2687 26.0489 13.755C25.7426 11.935 24.3076 11.2262 24.6226 13.0462Z" fill="#F2C34E"/>
<path d="M6.2568 4.34873L14.0443 12.3725C14.1493 12.4775 14.473 12.81 14.8055 12.565C15.1468 12.3025 14.9018 11.9175 14.8405 11.7687L14.4993 11.2L7.6918 4.19998C7.21055 3.70123 6.37055 3.67498 5.81055 4.05123C5.9768 4.12123 6.12555 4.21748 6.2568 4.34873Z" fill="#F2C34E"/>
<path d="M2.72187 9.28364L11.2619 15.3999C11.4194 15.5136 11.8481 15.8199 12.1544 15.4611C12.4256 15.1724 12.2069 14.8399 12.0581 14.6649L4.30562 9.10864C3.78938 8.74989 3.05437 8.80239 2.54688 9.18739C2.60813 9.22239 2.66937 9.24864 2.72187 9.28364Z" fill="#F2C34E"/>
<path d="M12.1456 2.43246L17.0019 10.2375C17.6931 11.3925 18.7781 12.3637 19.7406 12.8187C20.2569 13.0637 20.6944 12.9062 20.9481 12.53C20.0469 12.04 19.0844 11.1475 18.4369 10.08L13.5806 2.27496C13.2744 1.75871 12.4781 1.26871 11.6469 1.75871C11.5944 1.78496 11.5594 1.81996 11.5156 1.85496C11.7869 2.00371 12.0144 2.21371 12.1456 2.43246Z" fill="#F2C34E"/>
<path d="M9.15289 18.7511C9.37164 18.8648 9.87039 19.1361 10.1416 18.6898C10.2466 18.5148 10.2204 18.3661 10.1591 18.2348L3.21164 14.6823C2.66039 14.4023 2.04789 14.5248 1.61914 14.9011L9.15289 18.7511Z" fill="#F2C34E"/>
<path d="M18.1561 26.8712C15.0061 26.8712 12.4423 24.4387 10.6573 22.7499C9.88734 22.0149 9.21359 21.3849 8.72359 21.1399L1.66234 17.2199C1.29484 17.0099 1.03234 16.6687 0.92734 16.2487C0.80484 15.7937 0.88359 15.3037 1.11984 14.8924C1.58359 14.1049 2.52859 13.8161 3.32484 14.2186L9.83484 17.5436C9.90484 17.5786 10.0711 17.6574 10.1236 17.6574C10.0973 17.6312 10.0273 17.5612 9.89609 17.4562L2.31859 11.6549C1.57484 11.0599 1.42609 9.9574 1.96859 9.1874C2.23984 8.8024 2.66859 8.5224 3.15859 8.44365C3.63109 8.35615 4.09484 8.46115 4.46234 8.72365L12.1711 14.2449C12.3286 14.3674 12.3898 14.3762 12.4073 14.3762C12.3986 14.3674 12.3811 14.2974 12.2673 14.1749L5.10984 6.6324C4.40984 5.8449 4.50609 4.62865 5.33734 3.85865C6.08109 3.1849 7.32359 3.2024 7.99734 3.89365L15.0236 11.2087C15.1461 11.3312 15.1986 11.3486 15.2248 11.3574C15.2161 11.3136 15.1548 11.1911 15.1373 11.1474L10.7623 3.89365C10.5261 3.5349 10.4473 3.0099 10.5611 2.5374C10.6748 2.05615 10.9723 1.6624 11.4098 1.3999C12.3986 0.813648 13.4748 1.2774 13.9473 2.0649L18.7948 9.8699C19.4073 10.8936 20.4136 11.8386 21.3498 12.2936C21.4811 12.3549 21.6823 12.4074 21.8398 12.3199C21.9973 12.2324 22.1111 12.0311 22.1461 11.7512C22.2861 10.6662 22.5136 9.05615 22.9686 7.70865C23.2136 6.95615 23.7823 6.3524 24.5261 6.04615C25.2786 5.7399 26.1361 5.7749 26.8798 6.1424C27.0636 6.23865 27.1598 6.4399 27.1073 6.64115L26.6611 8.3999C26.2323 10.1149 26.1711 11.8999 26.4773 13.6937C26.8361 15.7499 27.0023 17.5349 26.9761 19.0049C26.9323 21.4811 25.4711 22.7499 24.0536 23.9837C23.8523 24.1587 23.6423 24.3424 23.4411 24.5262C21.5511 26.2237 19.7748 26.8712 18.1561 26.8712ZM2.58109 14.9186C2.30109 14.9186 2.03859 15.0674 1.88109 15.3387V15.3474C1.75859 15.5487 1.72359 15.8024 1.77609 16.0299C1.81109 16.1611 1.89859 16.3449 2.09109 16.4586L9.12609 20.3699C9.72109 20.6587 10.4298 21.3324 11.2523 22.1199C14.0436 24.7624 17.8586 28.3849 22.8461 23.8612C23.0561 23.6687 23.2661 23.4937 23.4761 23.3099C24.8586 22.1024 26.0573 21.0699 26.1011 18.9787C26.1273 17.5699 25.9611 15.8374 25.6198 13.8337C25.2873 11.9174 25.3573 10.0099 25.8123 8.1724L26.1623 6.78115C25.7336 6.6499 25.2786 6.6674 24.8586 6.8424C24.3511 7.0524 23.9661 7.46365 23.7998 7.97115C23.3711 9.2574 23.1436 10.7974 23.0123 11.8474C22.9423 12.3987 22.6711 12.8449 22.2686 13.0724C21.8923 13.2824 21.4286 13.2824 20.9823 13.0724C19.8798 12.5474 18.7598 11.4886 18.0598 10.3161L13.2036 2.51115C13.0636 2.28365 12.5298 1.74115 11.8648 2.14365C11.6286 2.28365 11.4798 2.4849 11.4186 2.7299C11.3486 3.0099 11.4186 3.28115 11.5061 3.42115L15.8811 10.6749C16.2661 11.4361 16.0123 11.8299 15.7411 12.0399C15.5048 12.2149 15.0236 12.4249 14.4111 11.8211L7.37609 4.4974C7.02609 4.1474 6.32609 4.1474 5.94109 4.4974C5.40734 4.99615 5.42484 5.6699 5.75734 6.0374L12.8973 13.5624C13.4311 14.1224 13.3261 14.6474 13.0461 14.9537C12.9236 15.0937 12.4423 15.5399 11.6548 14.9449L3.95484 9.4324C3.77984 9.3099 3.55234 9.2574 3.30734 9.30115C3.05359 9.3449 2.82609 9.4849 2.68609 9.68615C2.40609 10.0799 2.48484 10.6661 2.85234 10.9636L10.4211 16.7562C11.1211 17.3074 11.0423 17.7974 10.8498 18.1037C10.6486 18.4362 10.2373 18.7424 9.44109 18.3224L2.92234 14.9886C2.81734 14.9449 2.70359 14.9186 2.58109 14.9186Z" fill="#455A64"/>
<path d="M6.88628 25.2524C4.33128 25.2524 1.96003 23.7999 0.805028 21.4987C0.700028 21.2887 0.787528 21.0262 1.00628 20.9124C1.22503 20.8074 1.48753 20.8949 1.59253 21.1049C2.62503 23.1524 4.76878 24.4387 7.06128 24.3687C7.30628 24.3774 7.50753 24.5524 7.50753 24.7974C7.51628 25.0424 7.32378 25.2437 7.07878 25.2437C7.01753 25.2524 6.95628 25.2524 6.88628 25.2524Z" fill="#455A64"/>
<path d="M6.84253 23.0825C6.82503 23.0825 6.81628 23.0825 6.79878 23.0825C5.11878 22.9162 3.62253 21.9362 2.80878 20.4575C2.69503 20.2475 2.76503 19.9762 2.98378 19.8625C3.19378 19.7487 3.46503 19.8187 3.57878 20.0375C4.25253 21.2625 5.49503 22.0762 6.88628 22.2162C7.12253 22.2425 7.30628 22.4525 7.28003 22.6975C7.25378 22.9162 7.06128 23.0825 6.84253 23.0825Z" fill="#455A64"/>
<path d="M21.5513 7.1574C21.3325 7.1574 21.14 6.99115 21.1138 6.76365C20.8688 4.48865 19.3025 2.5374 17.1325 1.79365C16.905 1.7149 16.7825 1.4699 16.8613 1.2424C16.94 1.0149 17.185 0.892404 17.4125 0.971154C19.8975 1.8199 21.6913 4.0599 21.98 6.67615C22.0063 6.9124 21.8313 7.13115 21.595 7.1574C21.5863 7.1574 21.5688 7.1574 21.5513 7.1574Z" fill="#455A64"/>
<path d="M19.425 7.5949C19.215 7.5949 19.0225 7.4374 18.9963 7.21865C18.7863 5.83615 17.9113 4.6374 16.6513 4.0249C16.4325 3.9199 16.345 3.6574 16.45 3.43865C16.555 3.2199 16.8175 3.1324 17.0363 3.2374C18.55 3.98115 19.6088 5.41615 19.8625 7.0874C19.8975 7.32365 19.7313 7.55115 19.495 7.58615C19.4688 7.58615 19.4513 7.5949 19.425 7.5949Z" fill="#455A64"/>
</svg>
