<svg width="120" height="126" viewBox="0 0 120 126" fill="none" xmlns="http://www.w3.org/2000/svg">
<path d="M69.8223 122.176C69.8223 122.176 65.1775 102.844 68.0447 90.9377C70.9116 79.0317 75.4486 76.5313 75.001 74.7154C74.5547 72.9001 72.2605 73.7535 71.5265 75.4328C70.7926 77.1117 67.7909 80.7327 65.0316 80.1491C62.2729 79.5652 61.531 68.238 59.513 67.1063C57.4953 65.9742 58.1957 71.2094 58.9788 75.7476C59.7623 80.2861 55.8987 77.7598 53.4886 72.3169C51.0786 66.8736 49.6694 68.4682 49.4031 69.2389C49.1365 70.0093 54.7005 79.7191 54.2896 80.1839C53.8781 80.6494 46.9084 72.5975 46.2319 72.8283C45.5548 73.0585 44.4001 73.6954 46.065 76.2312C47.7299 78.7671 52.9574 83.0307 52.6244 83.7427C52.2911 84.4546 47.9674 80.575 46.3909 80.4837C44.8145 80.3924 45.4542 82.6147 48.2816 84.6395C51.1086 86.6642 58.0313 88.875 58.2529 96.5276C58.4744 104.179 56.4839 122.145 56.4839 122.145C56.4839 122.145 61.3988 128.867 69.8223 122.176Z" fill="white"/>
<path d="M65.3265 70.8941C65.3265 70.8941 47.589 44.8036 77.7034 16.6772C77.7034 16.6772 105.272 49.1382 69.995 71.1914C69.995 71.1914 70.8299 50.2607 74.7883 41.7337C74.7883 41.7337 64.1823 60.2837 65.3265 70.8941Z" fill="white"/>
<path d="M77.3076 73.4086C77.3076 73.4086 88.2009 50.4608 120 59.9235C120 59.9235 108.687 92.2906 79.0019 76.7687C79.0019 76.7687 93.8808 68.8311 101.413 68.1041C101.413 68.1041 84.2035 68.297 77.3076 73.4086Z" fill="white"/>
<path d="M44.1721 73.8642C44.1721 73.8642 23.2166 88.5959 0 64.5052C0 64.5052 26.003 41.7107 44.3548 70.0705C44.3548 70.0705 27.3519 69.6583 20.3787 66.5532C20.3787 66.5532 35.573 74.9279 44.1721 73.8642Z" fill="white"/>
<path d="M49.4329 66.9428C49.4329 66.9428 22.2899 57.6892 28.795 20.8037C28.795 20.8037 66.5571 29.3109 52.9824 64.6084C52.9824 64.6084 42.1584 48.9473 40.3706 40.5934C40.3706 40.5934 42.81 59.8694 49.4329 66.9428Z" fill="white"/>
<path d="M92.0013 52.2155C92.0013 52.2155 91.2392 35.1357 113.131 30.731C113.131 30.731 116.615 53.544 94.0685 53.679C94.0685 53.679 100.411 44.2661 104.66 41.4583C104.66 41.4583 94.4886 47.0012 92.0013 52.2155Z" fill="white"/>
<path d="M24.7744 52.9026C24.7744 52.9026 8.82125 55.4106 2.38379 35.324C2.38379 35.324 23.4352 29.6576 25.9327 50.807C25.9327 50.807 16.4269 45.8457 13.3445 42.1497C13.3445 42.1497 19.6134 51.1131 24.7744 52.9026Z" fill="white"/>
<path d="M55.9818 32.497C55.9818 32.497 43.3377 19.019 58.1994 0C58.1994 0 77.1117 16.2664 58.7079 32.2429C58.7079 32.2429 57.2879 20.0569 58.7983 14.7627C58.7983 14.7627 54.3539 26.4685 55.9818 32.497Z" fill="white"/>
<path d="M78.0854 83.8983C78.0854 83.8983 94.3223 78.5463 104.483 98.4314C104.483 98.4314 83.461 107.954 77.2349 86.2837C77.2349 86.2837 88.0123 89.845 91.8644 93.1765C91.8644 93.1765 83.7777 84.8828 78.0854 83.8983Z" fill="white"/>
<path d="M44.9413 86.9943C44.9413 86.9943 38.6121 103.799 15.6538 99.0018C15.6538 99.0018 21.726 75.5333 43.55 84.7241C43.55 84.7241 33.5353 91.1944 28.2698 92.1467C28.2698 92.1467 40.3792 91.0035 44.9413 86.9943Z" fill="white"/>
</svg>
